<svg xmlns="http://www.w3.org/2000/svg" viewBox="0 0 420 500"><rect width="420" height="500" fill="#eee7da"/><circle cx="210" cy="80" r="45" fill="#c4875b"/><path d="M150 73c20-65 111-54 121 0-43-17-74-16-121 0Z" fill="#21140c"/><path d="M111 158c55-46 145-46 198 0l43 300H68l43-300Z" fill="#0d0d0d"/><path d="M154 169c28 31 82 31 112 0M141 210h138M129 274h162M113 356h194" stroke="#d4a95a" stroke-width="6"/><path d="M210 160v298" stroke="#d4a95a" stroke-width="5"/><g fill="#d4a95a"><circle cx="158" cy="247" r="5"/><circle cx="262" cy="247" r="5"/><circle cx="184" cy="330" r="5"/><circle cx="236" cy="330" r="5"/></g></svg>
