<svg xmlns="http://www.w3.org/2000/svg" viewBox="0 0 420 500"><rect width="420" height="500" fill="#efe8df"/><circle cx="210" cy="86" r="47" fill="#ba7e55"/><path d="M156 78c14-53 94-56 110 1-34-17-70-17-110-1Z" fill="#111"/><path d="M118 166c49-38 136-38 184 0l24 259H94l24-259Z" fill="#17201a"/><path d="M169 165l41 70 41-70M210 165v260" stroke="#c88b33" stroke-width="4"/><g fill="#d4a95a"><circle cx="154" cy="236" r="6"/><circle cx="252" cy="229" r="5"/><circle cx="190" cy="292" r="5"/><circle cx="275" cy="326" r="6"/><circle cx="145" cy="358" r="5"/><circle cx="224" cy="382" r="5"/></g><path d="m119 173-54 94 59 42M301 173l54 94-59 42" fill="#17201a"/></svg>
