<svg xmlns="http://www.w3.org/2000/svg" viewBox="0 0 980 620">
  <defs>
    <linearGradient id="bg" x1="0" x2="1"><stop stop-color="#efe4d4"/><stop offset="1" stop-color="#fffaf3"/></linearGradient>
    <linearGradient id="gold" x1="0" x2="1"><stop stop-color="#8f5b16"/><stop offset=".55" stop-color="#d4a95a"/><stop offset="1" stop-color="#f5d58c"/></linearGradient>
    <filter id="s" x="-20%" y="-20%" width="140%" height="140%"><feDropShadow dx="0" dy="18" stdDeviation="18" flood-color="#3b2410" flood-opacity=".18"/></filter>
  </defs>
  <rect width="980" height="620" fill="url(#bg)"/>
  <circle cx="252" cy="310" r="270" fill="none" stroke="#d4a95a" stroke-opacity=".28" stroke-width="38"/>
  <path d="M590 0h390v620H685c72-138 46-269-95-620Z" fill="#e8d7bf"/>
  <g filter="url(#s)">
    <g transform="translate(210 74)">
      <ellipse cx="145" cy="500" rx="112" ry="22" fill="#000" opacity=".08"/>
      <circle cx="150" cy="70" r="45" fill="#c8966d"/>
      <path d="M111 53c23-56 100-47 104 12-23-20-61-18-104-12Z" fill="#141414"/>
      <path d="M82 154c40-35 102-38 139-2 25 90 14 218-4 326H82C62 338 58 236 82 154Z" fill="#0d0d0d"/>
      <path d="M112 164c25 35 64 35 91 0l16 304H96l16-304Z" fill="#171717"/>
      <path d="M107 158c12 78 12 190 1 306M208 154c-10 86-12 197-2 312" fill="none" stroke="url(#gold)" stroke-width="9"/>
      <path d="M70 176c-56 54-64 129-50 228l54 8c-8-75 1-143 24-208Z" fill="#0b0b0b"/>
      <path d="M234 175c53 58 59 145 44 229l-53 8c9-78 1-146-20-209Z" fill="#0b0b0b"/>
      <path d="M130 100c11 21 39 23 54 0v54c-18 16-39 16-54 0Z" fill="#c8966d"/>
      <path d="M126 177h62" stroke="#d4a95a" stroke-width="4" stroke-linecap="round"/>
    </g>
    <g transform="translate(525 64)">
      <ellipse cx="144" cy="510" rx="108" ry="22" fill="#000" opacity=".08"/>
      <circle cx="145" cy="70" r="43" fill="#b47b55"/>
      <path d="M98 66c10-55 87-70 111-12 8 18 6 40-1 59-24-31-65-43-110-47Z" fill="#111"/>
      <path d="M98 151c45-31 93-31 137 0 27 111 20 220-5 329H84C65 359 62 253 98 151Z" fill="#101010"/>
      <path d="M120 158c8 88 8 205-2 317M214 158c-6 91-7 205 2 317" stroke="#1d1d1d" stroke-width="16"/>
      <path d="M95 173c-42 35-58 96-57 181l44 15c5-62 17-116 37-163Z" fill="#0b0b0b"/>
      <path d="M235 171c44 45 61 111 53 189l-47 10c-1-64-14-117-35-164Z" fill="#0b0b0b"/>
      <path d="M124 101c12 20 38 20 52 0v49c-17 15-36 15-52 0Z" fill="#b47b55"/>
      <rect x="107" y="154" width="112" height="326" rx="28" fill="#0d0d0d"/>
      <path d="M162 154v326" stroke="#2b2b2b" stroke-width="4"/>
    </g>
  </g>
</svg>
